<mxfile host="app.diagrams.net" modified="2023-05-04T19:26:39.971Z" agent="Mozilla/5.0 (Windows NT 10.0; Win64; x64) AppleWebKit/537.36 (KHTML, like Gecko) Chrome/112.0.0.0 Safari/537.36" etag="nU9unsEfgUDFDCTpO7sL" version="21.2.7" type="github">
  <diagram name="페이지-1" id="qc0F3FWGYYwdxMTPt3b9">
    <mxGraphModel dx="2074" dy="1156" grid="1" gridSize="10" guides="1" tooltips="1" connect="1" arrows="1" fold="1" page="1" pageScale="1" pageWidth="827" pageHeight="1169" math="0" shadow="0">
      <root>
        <mxCell id="0" />
        <mxCell id="1" parent="0" />
        <mxCell id="wKFNCTLmc27lVLogcxWC-1" value="PC" style="swimlane;whiteSpace=wrap;html=1;" parent="1" vertex="1">
          <mxGeometry x="120" y="50" width="440" height="390" as="geometry" />
        </mxCell>
        <mxCell id="DXyc5GQimhF7zWb7F7Sv-79" style="edgeStyle=orthogonalEdgeStyle;rounded=0;orthogonalLoop=1;jettySize=auto;html=1;exitX=0.5;exitY=1;exitDx=0;exitDy=0;exitPerimeter=0;entryX=0.5;entryY=0;entryDx=0;entryDy=0;" parent="wKFNCTLmc27lVLogcxWC-1" source="wKFNCTLmc27lVLogcxWC-4" target="DXyc5GQimhF7zWb7F7Sv-72" edge="1">
          <mxGeometry relative="1" as="geometry" />
        </mxCell>
        <mxCell id="wKFNCTLmc27lVLogcxWC-4" value="Proccessing" style="strokeWidth=2;html=1;shape=mxgraph.flowchart.start_1;whiteSpace=wrap;" parent="wKFNCTLmc27lVLogcxWC-1" vertex="1">
          <mxGeometry x="182.5" y="40" width="77.5" height="30" as="geometry" />
        </mxCell>
        <mxCell id="MRpiIrTG17fd3Gt3XZd6-125" style="edgeStyle=orthogonalEdgeStyle;rounded=0;orthogonalLoop=1;jettySize=auto;html=1;entryX=0.5;entryY=0;entryDx=0;entryDy=0;" edge="1" parent="wKFNCTLmc27lVLogcxWC-1" source="DXyc5GQimhF7zWb7F7Sv-72" target="DXyc5GQimhF7zWb7F7Sv-74">
          <mxGeometry relative="1" as="geometry">
            <Array as="points">
              <mxPoint x="220" y="130" />
              <mxPoint x="133" y="130" />
            </Array>
          </mxGeometry>
        </mxCell>
        <mxCell id="MRpiIrTG17fd3Gt3XZd6-126" style="edgeStyle=orthogonalEdgeStyle;rounded=0;orthogonalLoop=1;jettySize=auto;html=1;entryX=0.5;entryY=0;entryDx=0;entryDy=0;" edge="1" parent="wKFNCTLmc27lVLogcxWC-1" source="DXyc5GQimhF7zWb7F7Sv-72" target="DXyc5GQimhF7zWb7F7Sv-75">
          <mxGeometry relative="1" as="geometry">
            <Array as="points">
              <mxPoint x="220" y="130" />
              <mxPoint x="335" y="130" />
            </Array>
          </mxGeometry>
        </mxCell>
        <mxCell id="DXyc5GQimhF7zWb7F7Sv-72" value="GUI set" style="rounded=0;whiteSpace=wrap;html=1;" parent="wKFNCTLmc27lVLogcxWC-1" vertex="1">
          <mxGeometry x="175" y="90" width="90" height="30" as="geometry" />
        </mxCell>
        <mxCell id="DXyc5GQimhF7zWb7F7Sv-89" style="edgeStyle=orthogonalEdgeStyle;rounded=0;orthogonalLoop=1;jettySize=auto;html=1;entryX=0.5;entryY=0;entryDx=0;entryDy=0;" parent="wKFNCTLmc27lVLogcxWC-1" source="DXyc5GQimhF7zWb7F7Sv-77" target="DXyc5GQimhF7zWb7F7Sv-87" edge="1">
          <mxGeometry relative="1" as="geometry" />
        </mxCell>
        <mxCell id="DXyc5GQimhF7zWb7F7Sv-77" value="Data read" style="rounded=0;whiteSpace=wrap;html=1;" parent="wKFNCTLmc27lVLogcxWC-1" vertex="1">
          <mxGeometry x="290" y="220" width="90" height="30" as="geometry" />
        </mxCell>
        <mxCell id="DXyc5GQimhF7zWb7F7Sv-176" value="" style="edgeStyle=orthogonalEdgeStyle;rounded=0;orthogonalLoop=1;jettySize=auto;html=1;" parent="wKFNCTLmc27lVLogcxWC-1" source="DXyc5GQimhF7zWb7F7Sv-76" target="DXyc5GQimhF7zWb7F7Sv-175" edge="1">
          <mxGeometry relative="1" as="geometry" />
        </mxCell>
        <mxCell id="DXyc5GQimhF7zWb7F7Sv-76" value="MODBUS CRC 16&amp;nbsp;&lt;br&gt;Check" style="rounded=0;whiteSpace=wrap;html=1;" parent="wKFNCTLmc27lVLogcxWC-1" vertex="1">
          <mxGeometry x="78.75" y="220" width="110" height="40" as="geometry" />
        </mxCell>
        <mxCell id="DXyc5GQimhF7zWb7F7Sv-86" style="edgeStyle=orthogonalEdgeStyle;rounded=0;orthogonalLoop=1;jettySize=auto;html=1;entryX=0.5;entryY=0;entryDx=0;entryDy=0;" parent="wKFNCTLmc27lVLogcxWC-1" source="DXyc5GQimhF7zWb7F7Sv-75" target="DXyc5GQimhF7zWb7F7Sv-77" edge="1">
          <mxGeometry relative="1" as="geometry" />
        </mxCell>
        <mxCell id="DXyc5GQimhF7zWb7F7Sv-75" value="Button data input" style="rounded=0;whiteSpace=wrap;html=1;" parent="wKFNCTLmc27lVLogcxWC-1" vertex="1">
          <mxGeometry x="290" y="150" width="90" height="35" as="geometry" />
        </mxCell>
        <mxCell id="DXyc5GQimhF7zWb7F7Sv-82" style="edgeStyle=orthogonalEdgeStyle;rounded=0;orthogonalLoop=1;jettySize=auto;html=1;exitX=0.5;exitY=1;exitDx=0;exitDy=0;entryX=0.5;entryY=0;entryDx=0;entryDy=0;" parent="wKFNCTLmc27lVLogcxWC-1" source="DXyc5GQimhF7zWb7F7Sv-74" target="DXyc5GQimhF7zWb7F7Sv-76" edge="1">
          <mxGeometry relative="1" as="geometry" />
        </mxCell>
        <mxCell id="DXyc5GQimhF7zWb7F7Sv-74" value="LED, ADC Data&amp;nbsp;&lt;br&gt;receive" style="rounded=0;whiteSpace=wrap;html=1;" parent="wKFNCTLmc27lVLogcxWC-1" vertex="1">
          <mxGeometry x="78.75" y="150" width="107.5" height="40" as="geometry" />
        </mxCell>
        <mxCell id="DXyc5GQimhF7zWb7F7Sv-87" value="Send Data" style="rounded=0;whiteSpace=wrap;html=1;" parent="wKFNCTLmc27lVLogcxWC-1" vertex="1">
          <mxGeometry x="280" y="290" width="110" height="40" as="geometry" />
        </mxCell>
        <mxCell id="DXyc5GQimhF7zWb7F7Sv-175" value="LED, ADC GUI&lt;br style=&quot;border-color: var(--border-color);&quot;&gt;Output" style="shape=parallelogram;perimeter=parallelogramPerimeter;whiteSpace=wrap;html=1;fixedSize=1;" parent="wKFNCTLmc27lVLogcxWC-1" vertex="1">
          <mxGeometry x="73.75" y="290" width="120" height="60" as="geometry" />
        </mxCell>
        <mxCell id="DXyc5GQimhF7zWb7F7Sv-2" value="Slave" style="swimlane;whiteSpace=wrap;html=1;" parent="1" vertex="1">
          <mxGeometry x="1360" y="50" width="880" height="1080" as="geometry" />
        </mxCell>
        <mxCell id="DXyc5GQimhF7zWb7F7Sv-113" style="edgeStyle=orthogonalEdgeStyle;rounded=0;orthogonalLoop=1;jettySize=auto;html=1;exitX=0.5;exitY=1;exitDx=0;exitDy=0;exitPerimeter=0;entryX=0.5;entryY=0;entryDx=0;entryDy=0;" parent="DXyc5GQimhF7zWb7F7Sv-2" source="DXyc5GQimhF7zWb7F7Sv-13" target="DXyc5GQimhF7zWb7F7Sv-18" edge="1">
          <mxGeometry relative="1" as="geometry" />
        </mxCell>
        <mxCell id="DXyc5GQimhF7zWb7F7Sv-13" value="Start" style="strokeWidth=2;html=1;shape=mxgraph.flowchart.start_1;whiteSpace=wrap;" parent="DXyc5GQimhF7zWb7F7Sv-2" vertex="1">
          <mxGeometry x="181.25" y="40" width="77.5" height="30" as="geometry" />
        </mxCell>
        <mxCell id="MRpiIrTG17fd3Gt3XZd6-119" style="edgeStyle=orthogonalEdgeStyle;rounded=0;orthogonalLoop=1;jettySize=auto;html=1;entryX=0.5;entryY=0;entryDx=0;entryDy=0;" edge="1" parent="DXyc5GQimhF7zWb7F7Sv-2" source="DXyc5GQimhF7zWb7F7Sv-17">
          <mxGeometry relative="1" as="geometry">
            <mxPoint x="469.69000000000005" y="210" as="targetPoint" />
            <Array as="points">
              <mxPoint x="220" y="190" />
              <mxPoint x="470" y="190" />
            </Array>
          </mxGeometry>
        </mxCell>
        <mxCell id="MRpiIrTG17fd3Gt3XZd6-127" style="edgeStyle=orthogonalEdgeStyle;rounded=0;orthogonalLoop=1;jettySize=auto;html=1;entryX=0.5;entryY=0;entryDx=0;entryDy=0;" edge="1" parent="DXyc5GQimhF7zWb7F7Sv-2" source="DXyc5GQimhF7zWb7F7Sv-17" target="MRpiIrTG17fd3Gt3XZd6-58">
          <mxGeometry relative="1" as="geometry">
            <Array as="points">
              <mxPoint x="220" y="190" />
              <mxPoint x="110" y="190" />
            </Array>
          </mxGeometry>
        </mxCell>
        <mxCell id="DXyc5GQimhF7zWb7F7Sv-17" value="Setup()" style="rounded=0;whiteSpace=wrap;html=1;" parent="DXyc5GQimhF7zWb7F7Sv-2" vertex="1">
          <mxGeometry x="190" y="150" width="60" height="30" as="geometry" />
        </mxCell>
        <mxCell id="DXyc5GQimhF7zWb7F7Sv-114" style="edgeStyle=orthogonalEdgeStyle;rounded=0;orthogonalLoop=1;jettySize=auto;html=1;exitX=0.5;exitY=1;exitDx=0;exitDy=0;entryX=0.5;entryY=0;entryDx=0;entryDy=0;" parent="DXyc5GQimhF7zWb7F7Sv-2" source="DXyc5GQimhF7zWb7F7Sv-18" target="DXyc5GQimhF7zWb7F7Sv-17" edge="1">
          <mxGeometry relative="1" as="geometry" />
        </mxCell>
        <mxCell id="DXyc5GQimhF7zWb7F7Sv-18" value="INITIALIZE,PIN&lt;br&gt;Assignment" style="rounded=0;whiteSpace=wrap;html=1;" parent="DXyc5GQimhF7zWb7F7Sv-2" vertex="1">
          <mxGeometry x="165" y="90" width="110" height="40" as="geometry" />
        </mxCell>
        <mxCell id="MRpiIrTG17fd3Gt3XZd6-116" style="edgeStyle=orthogonalEdgeStyle;rounded=0;orthogonalLoop=1;jettySize=auto;html=1;entryX=0.47;entryY=0;entryDx=0;entryDy=0;entryPerimeter=0;" edge="1" parent="DXyc5GQimhF7zWb7F7Sv-2" source="MRpiIrTG17fd3Gt3XZd6-58" target="MRpiIrTG17fd3Gt3XZd6-62">
          <mxGeometry relative="1" as="geometry" />
        </mxCell>
        <mxCell id="MRpiIrTG17fd3Gt3XZd6-58" value="&lt;span style=&quot;color: rgb(0, 0, 0); font-family: Helvetica; font-size: 12px; font-style: normal; font-variant-ligatures: normal; font-variant-caps: normal; font-weight: 400; letter-spacing: normal; orphans: 2; text-align: center; text-indent: 0px; text-transform: none; widows: 2; word-spacing: 0px; -webkit-text-stroke-width: 0px; background-color: rgb(251, 251, 251); text-decoration-thickness: initial; text-decoration-style: initial; text-decoration-color: initial; float: none; display: inline !important;&quot;&gt;Initiate MsTimer&lt;br&gt;Initiate&amp;nbsp;WatchDog&lt;br&gt;&lt;/span&gt;" style="rounded=0;whiteSpace=wrap;html=1;" vertex="1" parent="DXyc5GQimhF7zWb7F7Sv-2">
          <mxGeometry x="55" y="210" width="110" height="50" as="geometry" />
        </mxCell>
        <mxCell id="MRpiIrTG17fd3Gt3XZd6-62" value="" style="swimlane;startSize=0;" vertex="1" parent="DXyc5GQimhF7zWb7F7Sv-2">
          <mxGeometry x="12.5" y="300" width="207.5" height="370" as="geometry" />
        </mxCell>
        <mxCell id="MRpiIrTG17fd3Gt3XZd6-63" style="edgeStyle=orthogonalEdgeStyle;rounded=0;orthogonalLoop=1;jettySize=auto;html=1;entryX=0.5;entryY=0;entryDx=0;entryDy=0;" edge="1" parent="MRpiIrTG17fd3Gt3XZd6-62" source="MRpiIrTG17fd3Gt3XZd6-64" target="MRpiIrTG17fd3Gt3XZd6-67">
          <mxGeometry relative="1" as="geometry" />
        </mxCell>
        <mxCell id="MRpiIrTG17fd3Gt3XZd6-64" value="Timer increase" style="rounded=0;whiteSpace=wrap;html=1;" vertex="1" parent="MRpiIrTG17fd3Gt3XZd6-62">
          <mxGeometry x="55.64" y="90" width="88.75" height="30" as="geometry" />
        </mxCell>
        <mxCell id="MRpiIrTG17fd3Gt3XZd6-65" style="edgeStyle=orthogonalEdgeStyle;rounded=0;orthogonalLoop=1;jettySize=auto;html=1;entryX=0;entryY=0.5;entryDx=0;entryDy=0;" edge="1" parent="MRpiIrTG17fd3Gt3XZd6-62" source="MRpiIrTG17fd3Gt3XZd6-67" target="MRpiIrTG17fd3Gt3XZd6-64">
          <mxGeometry relative="1" as="geometry">
            <Array as="points">
              <mxPoint x="20" y="170" />
              <mxPoint x="20" y="105" />
            </Array>
          </mxGeometry>
        </mxCell>
        <mxCell id="MRpiIrTG17fd3Gt3XZd6-66" style="edgeStyle=orthogonalEdgeStyle;rounded=0;orthogonalLoop=1;jettySize=auto;html=1;entryX=0.5;entryY=0;entryDx=0;entryDy=0;" edge="1" parent="MRpiIrTG17fd3Gt3XZd6-62" source="MRpiIrTG17fd3Gt3XZd6-67" target="MRpiIrTG17fd3Gt3XZd6-69">
          <mxGeometry relative="1" as="geometry" />
        </mxCell>
        <mxCell id="MRpiIrTG17fd3Gt3XZd6-67" value="Timer overflow" style="rhombus;whiteSpace=wrap;html=1;" vertex="1" parent="MRpiIrTG17fd3Gt3XZd6-62">
          <mxGeometry x="40.01" y="150" width="120" height="40" as="geometry" />
        </mxCell>
        <mxCell id="MRpiIrTG17fd3Gt3XZd6-68" style="edgeStyle=orthogonalEdgeStyle;rounded=0;orthogonalLoop=1;jettySize=auto;html=1;exitX=0.5;exitY=1;exitDx=0;exitDy=0;entryX=0.5;entryY=0;entryDx=0;entryDy=0;" edge="1" parent="MRpiIrTG17fd3Gt3XZd6-62" source="MRpiIrTG17fd3Gt3XZd6-69">
          <mxGeometry relative="1" as="geometry">
            <mxPoint x="100" y="270" as="targetPoint" />
          </mxGeometry>
        </mxCell>
        <mxCell id="MRpiIrTG17fd3Gt3XZd6-69" value="Send WatchDog Pulse" style="rounded=0;whiteSpace=wrap;html=1;" vertex="1" parent="MRpiIrTG17fd3Gt3XZd6-62">
          <mxGeometry x="50" y="210" width="100" height="40" as="geometry" />
        </mxCell>
        <mxCell id="MRpiIrTG17fd3Gt3XZd6-72" style="edgeStyle=orthogonalEdgeStyle;rounded=0;orthogonalLoop=1;jettySize=auto;html=1;entryX=0.5;entryY=0;entryDx=0;entryDy=0;" edge="1" parent="MRpiIrTG17fd3Gt3XZd6-62" source="MRpiIrTG17fd3Gt3XZd6-73" target="MRpiIrTG17fd3Gt3XZd6-64">
          <mxGeometry relative="1" as="geometry" />
        </mxCell>
        <mxCell id="MRpiIrTG17fd3Gt3XZd6-73" value="MsTimer interrupt" style="rounded=0;whiteSpace=wrap;html=1;" vertex="1" parent="MRpiIrTG17fd3Gt3XZd6-62">
          <mxGeometry x="40" y="20" width="120" height="40" as="geometry" />
        </mxCell>
        <mxCell id="MRpiIrTG17fd3Gt3XZd6-74" value="Yes" style="text;strokeColor=none;fillColor=none;align=left;verticalAlign=middle;spacingLeft=4;spacingRight=4;overflow=hidden;points=[[0,0.5],[1,0.5]];portConstraint=eastwest;rotatable=0;whiteSpace=wrap;html=1;" vertex="1" parent="MRpiIrTG17fd3Gt3XZd6-62">
          <mxGeometry x="114.39" y="180" width="30" height="30" as="geometry" />
        </mxCell>
        <mxCell id="MRpiIrTG17fd3Gt3XZd6-75" value="No" style="text;strokeColor=none;fillColor=none;align=left;verticalAlign=middle;spacingLeft=4;spacingRight=4;overflow=hidden;points=[[0,0.5],[1,0.5]];portConstraint=eastwest;rotatable=0;whiteSpace=wrap;html=1;" vertex="1" parent="MRpiIrTG17fd3Gt3XZd6-62">
          <mxGeometry x="20" y="130" width="30" height="30" as="geometry" />
        </mxCell>
        <mxCell id="MRpiIrTG17fd3Gt3XZd6-82" style="edgeStyle=orthogonalEdgeStyle;rounded=0;orthogonalLoop=1;jettySize=auto;html=1;entryX=1;entryY=0.5;entryDx=0;entryDy=0;" edge="1" parent="MRpiIrTG17fd3Gt3XZd6-62" source="MRpiIrTG17fd3Gt3XZd6-77" target="MRpiIrTG17fd3Gt3XZd6-73">
          <mxGeometry relative="1" as="geometry">
            <Array as="points">
              <mxPoint x="100" y="340" />
              <mxPoint x="180" y="340" />
              <mxPoint x="180" y="40" />
            </Array>
          </mxGeometry>
        </mxCell>
        <mxCell id="MRpiIrTG17fd3Gt3XZd6-77" value="Interrupt enable" style="rounded=0;whiteSpace=wrap;html=1;" vertex="1" parent="MRpiIrTG17fd3Gt3XZd6-62">
          <mxGeometry x="60" y="270" width="80" height="40" as="geometry" />
        </mxCell>
        <mxCell id="MRpiIrTG17fd3Gt3XZd6-201" value="" style="swimlane;startSize=0;" vertex="1" parent="DXyc5GQimhF7zWb7F7Sv-2">
          <mxGeometry x="640" y="210" width="200" height="220" as="geometry" />
        </mxCell>
        <mxCell id="MRpiIrTG17fd3Gt3XZd6-202" value="&lt;span style=&quot;color: rgb(0, 0, 0); font-family: Helvetica; font-size: 12px; font-style: normal; font-variant-ligatures: normal; font-variant-caps: normal; font-weight: 400; letter-spacing: normal; orphans: 2; text-align: center; text-indent: 0px; text-transform: none; widows: 2; word-spacing: 0px; -webkit-text-stroke-width: 0px; background-color: rgb(251, 251, 251); text-decoration-thickness: initial; text-decoration-style: initial; text-decoration-color: initial; float: none; display: inline !important;&quot;&gt;WatchDog&lt;/span&gt;&lt;br style=&quot;border-color: var(--border-color); color: rgb(0, 0, 0); font-family: Helvetica; font-size: 12px; font-style: normal; font-variant-ligatures: normal; font-variant-caps: normal; font-weight: 400; letter-spacing: normal; orphans: 2; text-align: center; text-indent: 0px; text-transform: none; widows: 2; word-spacing: 0px; -webkit-text-stroke-width: 0px; background-color: rgb(251, 251, 251); text-decoration-thickness: initial; text-decoration-style: initial; text-decoration-color: initial;&quot;&gt;&lt;span style=&quot;color: rgb(0, 0, 0); font-family: Helvetica; font-size: 12px; font-style: normal; font-variant-ligatures: normal; font-variant-caps: normal; font-weight: 400; letter-spacing: normal; orphans: 2; text-align: center; text-indent: 0px; text-transform: none; widows: 2; word-spacing: 0px; -webkit-text-stroke-width: 0px; background-color: rgb(251, 251, 251); text-decoration-thickness: initial; text-decoration-style: initial; text-decoration-color: initial; float: none; display: inline !important;&quot;&gt;disable&lt;/span&gt;" style="rounded=0;whiteSpace=wrap;html=1;" vertex="1" parent="MRpiIrTG17fd3Gt3XZd6-201">
          <mxGeometry x="60" y="20" width="80" height="40" as="geometry" />
        </mxCell>
        <mxCell id="MRpiIrTG17fd3Gt3XZd6-203" value="Timer overflow ?" style="rhombus;whiteSpace=wrap;html=1;" vertex="1" parent="MRpiIrTG17fd3Gt3XZd6-201">
          <mxGeometry x="40" y="150" width="120" height="40" as="geometry" />
        </mxCell>
        <mxCell id="MRpiIrTG17fd3Gt3XZd6-204" value="" style="edgeStyle=orthogonalEdgeStyle;rounded=0;orthogonalLoop=1;jettySize=auto;html=1;" edge="1" parent="MRpiIrTG17fd3Gt3XZd6-201" source="MRpiIrTG17fd3Gt3XZd6-205" target="MRpiIrTG17fd3Gt3XZd6-203">
          <mxGeometry relative="1" as="geometry" />
        </mxCell>
        <mxCell id="MRpiIrTG17fd3Gt3XZd6-205" value="MsTimer&lt;br&gt;increments" style="rounded=0;whiteSpace=wrap;html=1;" vertex="1" parent="MRpiIrTG17fd3Gt3XZd6-201">
          <mxGeometry x="50" y="80" width="100" height="40" as="geometry" />
        </mxCell>
        <mxCell id="MRpiIrTG17fd3Gt3XZd6-206" value="" style="edgeStyle=orthogonalEdgeStyle;rounded=0;orthogonalLoop=1;jettySize=auto;html=1;" edge="1" parent="MRpiIrTG17fd3Gt3XZd6-201" source="MRpiIrTG17fd3Gt3XZd6-202" target="MRpiIrTG17fd3Gt3XZd6-205">
          <mxGeometry relative="1" as="geometry" />
        </mxCell>
        <mxCell id="MRpiIrTG17fd3Gt3XZd6-207" style="edgeStyle=orthogonalEdgeStyle;rounded=0;orthogonalLoop=1;jettySize=auto;html=1;entryX=0;entryY=0.5;entryDx=0;entryDy=0;" edge="1" parent="MRpiIrTG17fd3Gt3XZd6-201" source="MRpiIrTG17fd3Gt3XZd6-203" target="MRpiIrTG17fd3Gt3XZd6-205">
          <mxGeometry relative="1" as="geometry">
            <Array as="points">
              <mxPoint x="20" y="170" />
              <mxPoint x="20" y="100" />
            </Array>
          </mxGeometry>
        </mxCell>
        <mxCell id="MRpiIrTG17fd3Gt3XZd6-208" value="Yes" style="text;strokeColor=none;fillColor=none;align=left;verticalAlign=middle;spacingLeft=4;spacingRight=4;overflow=hidden;points=[[0,0.5],[1,0.5]];portConstraint=eastwest;rotatable=0;whiteSpace=wrap;html=1;" vertex="1" parent="MRpiIrTG17fd3Gt3XZd6-201">
          <mxGeometry x="120" y="180" width="30" height="30" as="geometry" />
        </mxCell>
        <mxCell id="MRpiIrTG17fd3Gt3XZd6-209" value="No" style="text;strokeColor=none;fillColor=none;align=left;verticalAlign=middle;spacingLeft=4;spacingRight=4;overflow=hidden;points=[[0,0.5],[1,0.5]];portConstraint=eastwest;rotatable=0;whiteSpace=wrap;html=1;" vertex="1" parent="MRpiIrTG17fd3Gt3XZd6-201">
          <mxGeometry x="20" y="120" width="30" height="30" as="geometry" />
        </mxCell>
        <mxCell id="MRpiIrTG17fd3Gt3XZd6-210" style="edgeStyle=orthogonalEdgeStyle;rounded=0;orthogonalLoop=1;jettySize=auto;html=1;entryX=0.5;entryY=0;entryDx=0;entryDy=0;" edge="1" parent="DXyc5GQimhF7zWb7F7Sv-2" source="DXyc5GQimhF7zWb7F7Sv-17" target="MRpiIrTG17fd3Gt3XZd6-201">
          <mxGeometry relative="1" as="geometry">
            <Array as="points">
              <mxPoint x="220" y="190" />
              <mxPoint x="740" y="190" />
            </Array>
          </mxGeometry>
        </mxCell>
        <mxCell id="MRpiIrTG17fd3Gt3XZd6-211" style="edgeStyle=orthogonalEdgeStyle;rounded=0;orthogonalLoop=1;jettySize=auto;html=1;entryX=1;entryY=0.5;entryDx=0;entryDy=0;exitX=0.5;exitY=1;exitDx=0;exitDy=0;" edge="1" parent="DXyc5GQimhF7zWb7F7Sv-2" source="MRpiIrTG17fd3Gt3XZd6-203" target="DXyc5GQimhF7zWb7F7Sv-17">
          <mxGeometry relative="1" as="geometry">
            <Array as="points">
              <mxPoint x="740" y="420" />
              <mxPoint x="820" y="420" />
              <mxPoint x="820" y="165" />
            </Array>
          </mxGeometry>
        </mxCell>
        <mxCell id="MRpiIrTG17fd3Gt3XZd6-226" style="edgeStyle=orthogonalEdgeStyle;rounded=0;orthogonalLoop=1;jettySize=auto;html=1;entryX=0.5;entryY=0;entryDx=0;entryDy=0;" edge="1" parent="DXyc5GQimhF7zWb7F7Sv-2" source="MRpiIrTG17fd3Gt3XZd6-225">
          <mxGeometry relative="1" as="geometry">
            <mxPoint x="470" y="280" as="targetPoint" />
          </mxGeometry>
        </mxCell>
        <mxCell id="MRpiIrTG17fd3Gt3XZd6-225" value="Receive Buff" style="shape=parallelogram;perimeter=parallelogramPerimeter;whiteSpace=wrap;html=1;fixedSize=1;" vertex="1" parent="DXyc5GQimhF7zWb7F7Sv-2">
          <mxGeometry x="410" y="210" width="120" height="35" as="geometry" />
        </mxCell>
        <mxCell id="MRpiIrTG17fd3Gt3XZd6-301" value="" style="swimlane;startSize=0;" vertex="1" parent="DXyc5GQimhF7zWb7F7Sv-2">
          <mxGeometry x="320" y="280" width="300" height="280" as="geometry" />
        </mxCell>
        <mxCell id="MRpiIrTG17fd3Gt3XZd6-303" style="edgeStyle=orthogonalEdgeStyle;rounded=0;orthogonalLoop=1;jettySize=auto;html=1;entryX=0.5;entryY=0;entryDx=0;entryDy=0;" edge="1" parent="MRpiIrTG17fd3Gt3XZd6-301" source="MRpiIrTG17fd3Gt3XZd6-304" target="MRpiIrTG17fd3Gt3XZd6-306">
          <mxGeometry relative="1" as="geometry" />
        </mxCell>
        <mxCell id="MRpiIrTG17fd3Gt3XZd6-304" value="MODBUS CRC 16" style="rounded=0;whiteSpace=wrap;html=1;" vertex="1" parent="MRpiIrTG17fd3Gt3XZd6-301">
          <mxGeometry x="95" y="20" width="110" height="30" as="geometry" />
        </mxCell>
        <mxCell id="MRpiIrTG17fd3Gt3XZd6-305" style="edgeStyle=orthogonalEdgeStyle;rounded=0;orthogonalLoop=1;jettySize=auto;html=1;exitX=0.5;exitY=1;exitDx=0;exitDy=0;entryX=0.5;entryY=0;entryDx=0;entryDy=0;" edge="1" parent="MRpiIrTG17fd3Gt3XZd6-301" source="MRpiIrTG17fd3Gt3XZd6-306" target="MRpiIrTG17fd3Gt3XZd6-308">
          <mxGeometry relative="1" as="geometry" />
        </mxCell>
        <mxCell id="MRpiIrTG17fd3Gt3XZd6-306" value="Button, ADC&lt;br style=&quot;border-color: var(--border-color);&quot;&gt;Data" style="shape=parallelogram;perimeter=parallelogramPerimeter;whiteSpace=wrap;html=1;fixedSize=1;" vertex="1" parent="MRpiIrTG17fd3Gt3XZd6-301">
          <mxGeometry x="97.5" y="80" width="105" height="50" as="geometry" />
        </mxCell>
        <mxCell id="MRpiIrTG17fd3Gt3XZd6-314" style="edgeStyle=orthogonalEdgeStyle;rounded=0;orthogonalLoop=1;jettySize=auto;html=1;entryX=0.5;entryY=0;entryDx=0;entryDy=0;" edge="1" parent="MRpiIrTG17fd3Gt3XZd6-301" source="MRpiIrTG17fd3Gt3XZd6-308" target="MRpiIrTG17fd3Gt3XZd6-311">
          <mxGeometry relative="1" as="geometry" />
        </mxCell>
        <mxCell id="MRpiIrTG17fd3Gt3XZd6-308" value="IO data process()" style="rounded=0;whiteSpace=wrap;html=1;" vertex="1" parent="MRpiIrTG17fd3Gt3XZd6-301">
          <mxGeometry x="97.5" y="160" width="105" height="30" as="geometry" />
        </mxCell>
        <mxCell id="MRpiIrTG17fd3Gt3XZd6-311" value="Send&lt;br style=&quot;border-color: var(--border-color);&quot;&gt;I2C Buff" style="shape=parallelogram;perimeter=parallelogramPerimeter;whiteSpace=wrap;html=1;fixedSize=1;" vertex="1" parent="MRpiIrTG17fd3Gt3XZd6-301">
          <mxGeometry x="90" y="220" width="120" height="30" as="geometry" />
        </mxCell>
        <mxCell id="wKFNCTLmc27lVLogcxWC-2" value="Master" style="swimlane;whiteSpace=wrap;html=1;" parent="1" vertex="1">
          <mxGeometry x="580" y="50" width="750" height="1080" as="geometry" />
        </mxCell>
        <mxCell id="DXyc5GQimhF7zWb7F7Sv-27" style="edgeStyle=orthogonalEdgeStyle;rounded=0;orthogonalLoop=1;jettySize=auto;html=1;exitX=0.5;exitY=1;exitDx=0;exitDy=0;exitPerimeter=0;entryX=0.5;entryY=0;entryDx=0;entryDy=0;" parent="wKFNCTLmc27lVLogcxWC-2" source="DXyc5GQimhF7zWb7F7Sv-12" target="DXyc5GQimhF7zWb7F7Sv-14" edge="1">
          <mxGeometry relative="1" as="geometry" />
        </mxCell>
        <mxCell id="DXyc5GQimhF7zWb7F7Sv-12" value="Start" style="strokeWidth=2;html=1;shape=mxgraph.flowchart.start_1;whiteSpace=wrap;" parent="wKFNCTLmc27lVLogcxWC-2" vertex="1">
          <mxGeometry x="181.25" y="40" width="77.5" height="30" as="geometry" />
        </mxCell>
        <mxCell id="DXyc5GQimhF7zWb7F7Sv-28" style="edgeStyle=orthogonalEdgeStyle;rounded=0;orthogonalLoop=1;jettySize=auto;html=1;exitX=0.5;exitY=1;exitDx=0;exitDy=0;entryX=0.5;entryY=0;entryDx=0;entryDy=0;" parent="wKFNCTLmc27lVLogcxWC-2" source="DXyc5GQimhF7zWb7F7Sv-14" target="DXyc5GQimhF7zWb7F7Sv-15" edge="1">
          <mxGeometry relative="1" as="geometry" />
        </mxCell>
        <mxCell id="DXyc5GQimhF7zWb7F7Sv-14" value="INITIALIZE,PIN&lt;br&gt;Assignment" style="rounded=0;whiteSpace=wrap;html=1;" parent="wKFNCTLmc27lVLogcxWC-2" vertex="1">
          <mxGeometry x="165" y="91" width="110" height="40" as="geometry" />
        </mxCell>
        <mxCell id="MRpiIrTG17fd3Gt3XZd6-1" style="edgeStyle=orthogonalEdgeStyle;rounded=0;orthogonalLoop=1;jettySize=auto;html=1;entryX=0.5;entryY=0;entryDx=0;entryDy=0;" edge="1" parent="wKFNCTLmc27lVLogcxWC-2" source="DXyc5GQimhF7zWb7F7Sv-15" target="DXyc5GQimhF7zWb7F7Sv-233">
          <mxGeometry relative="1" as="geometry">
            <mxPoint x="110" y="260" as="targetPoint" />
            <Array as="points">
              <mxPoint x="220" y="200" />
              <mxPoint x="118" y="200" />
            </Array>
          </mxGeometry>
        </mxCell>
        <mxCell id="MRpiIrTG17fd3Gt3XZd6-193" style="edgeStyle=orthogonalEdgeStyle;rounded=0;orthogonalLoop=1;jettySize=auto;html=1;entryX=0.5;entryY=0;entryDx=0;entryDy=0;" edge="1" parent="wKFNCTLmc27lVLogcxWC-2" source="DXyc5GQimhF7zWb7F7Sv-15" target="DXyc5GQimhF7zWb7F7Sv-20">
          <mxGeometry relative="1" as="geometry">
            <Array as="points">
              <mxPoint x="220" y="200" />
              <mxPoint x="315" y="200" />
            </Array>
          </mxGeometry>
        </mxCell>
        <mxCell id="MRpiIrTG17fd3Gt3XZd6-197" style="edgeStyle=orthogonalEdgeStyle;rounded=0;orthogonalLoop=1;jettySize=auto;html=1;entryX=0.5;entryY=0;entryDx=0;entryDy=0;" edge="1" parent="wKFNCTLmc27lVLogcxWC-2" source="DXyc5GQimhF7zWb7F7Sv-15" target="MRpiIrTG17fd3Gt3XZd6-174">
          <mxGeometry relative="1" as="geometry">
            <Array as="points">
              <mxPoint x="220" y="200" />
              <mxPoint x="580" y="200" />
            </Array>
          </mxGeometry>
        </mxCell>
        <mxCell id="DXyc5GQimhF7zWb7F7Sv-15" value="Setup" style="rounded=0;whiteSpace=wrap;html=1;" parent="wKFNCTLmc27lVLogcxWC-2" vertex="1">
          <mxGeometry x="190" y="150" width="60" height="30" as="geometry" />
        </mxCell>
        <mxCell id="DXyc5GQimhF7zWb7F7Sv-45" style="edgeStyle=orthogonalEdgeStyle;rounded=0;orthogonalLoop=1;jettySize=auto;html=1;exitX=1;exitY=0.5;exitDx=0;exitDy=0;entryX=0.5;entryY=0;entryDx=0;entryDy=0;" parent="wKFNCTLmc27lVLogcxWC-2" source="DXyc5GQimhF7zWb7F7Sv-20" target="DXyc5GQimhF7zWb7F7Sv-38" edge="1">
          <mxGeometry relative="1" as="geometry" />
        </mxCell>
        <mxCell id="MRpiIrTG17fd3Gt3XZd6-105" style="edgeStyle=orthogonalEdgeStyle;rounded=0;orthogonalLoop=1;jettySize=auto;html=1;entryX=0;entryY=0.5;entryDx=0;entryDy=0;" edge="1" parent="wKFNCTLmc27lVLogcxWC-2" source="DXyc5GQimhF7zWb7F7Sv-20" target="MRpiIrTG17fd3Gt3XZd6-38">
          <mxGeometry relative="1" as="geometry">
            <Array as="points">
              <mxPoint x="240" y="460" />
              <mxPoint x="240" y="940" />
            </Array>
          </mxGeometry>
        </mxCell>
        <mxCell id="DXyc5GQimhF7zWb7F7Sv-20" value="flag == 1 ?" style="rhombus;whiteSpace=wrap;html=1;" parent="wKFNCTLmc27lVLogcxWC-2" vertex="1">
          <mxGeometry x="270" y="435" width="90" height="50" as="geometry" />
        </mxCell>
        <mxCell id="MRpiIrTG17fd3Gt3XZd6-231" style="edgeStyle=orthogonalEdgeStyle;rounded=0;orthogonalLoop=1;jettySize=auto;html=1;exitX=0.5;exitY=1;exitDx=0;exitDy=0;entryX=0.5;entryY=0;entryDx=0;entryDy=0;" edge="1" parent="wKFNCTLmc27lVLogcxWC-2" source="DXyc5GQimhF7zWb7F7Sv-38" target="MRpiIrTG17fd3Gt3XZd6-224">
          <mxGeometry relative="1" as="geometry" />
        </mxCell>
        <mxCell id="DXyc5GQimhF7zWb7F7Sv-38" value="" style="swimlane;startSize=0;" parent="wKFNCTLmc27lVLogcxWC-2" vertex="1">
          <mxGeometry x="390" y="490" width="300" height="355" as="geometry" />
        </mxCell>
        <mxCell id="DXyc5GQimhF7zWb7F7Sv-44" style="edgeStyle=orthogonalEdgeStyle;rounded=0;orthogonalLoop=1;jettySize=auto;html=1;exitX=0.5;exitY=1;exitDx=0;exitDy=0;entryX=0.5;entryY=0;entryDx=0;entryDy=0;" parent="DXyc5GQimhF7zWb7F7Sv-38" target="DXyc5GQimhF7zWb7F7Sv-37" edge="1">
          <mxGeometry relative="1" as="geometry">
            <mxPoint x="149.9949999999999" y="50" as="sourcePoint" />
          </mxGeometry>
        </mxCell>
        <mxCell id="DXyc5GQimhF7zWb7F7Sv-160" style="edgeStyle=orthogonalEdgeStyle;rounded=0;orthogonalLoop=1;jettySize=auto;html=1;entryX=0.5;entryY=0;entryDx=0;entryDy=0;" parent="DXyc5GQimhF7zWb7F7Sv-38" source="DXyc5GQimhF7zWb7F7Sv-37" target="DXyc5GQimhF7zWb7F7Sv-157" edge="1">
          <mxGeometry relative="1" as="geometry" />
        </mxCell>
        <mxCell id="DXyc5GQimhF7zWb7F7Sv-37" value="MODBUS CRC 16" style="rounded=0;whiteSpace=wrap;html=1;" parent="DXyc5GQimhF7zWb7F7Sv-38" vertex="1">
          <mxGeometry x="95" y="70" width="110" height="30" as="geometry" />
        </mxCell>
        <mxCell id="MRpiIrTG17fd3Gt3XZd6-136" style="edgeStyle=orthogonalEdgeStyle;rounded=0;orthogonalLoop=1;jettySize=auto;html=1;exitX=0.5;exitY=1;exitDx=0;exitDy=0;entryX=0.5;entryY=0;entryDx=0;entryDy=0;" edge="1" parent="DXyc5GQimhF7zWb7F7Sv-38" source="DXyc5GQimhF7zWb7F7Sv-157" target="MRpiIrTG17fd3Gt3XZd6-133">
          <mxGeometry relative="1" as="geometry" />
        </mxCell>
        <mxCell id="DXyc5GQimhF7zWb7F7Sv-157" value="Button, ADC&lt;br style=&quot;border-color: var(--border-color);&quot;&gt;Data" style="shape=parallelogram;perimeter=parallelogramPerimeter;whiteSpace=wrap;html=1;fixedSize=1;" parent="DXyc5GQimhF7zWb7F7Sv-38" vertex="1">
          <mxGeometry x="97.5" y="130" width="105" height="50" as="geometry" />
        </mxCell>
        <mxCell id="MRpiIrTG17fd3Gt3XZd6-137" style="edgeStyle=orthogonalEdgeStyle;rounded=0;orthogonalLoop=1;jettySize=auto;html=1;exitX=0.5;exitY=1;exitDx=0;exitDy=0;entryX=0.5;entryY=0;entryDx=0;entryDy=0;" edge="1" parent="DXyc5GQimhF7zWb7F7Sv-38" source="MRpiIrTG17fd3Gt3XZd6-133">
          <mxGeometry relative="1" as="geometry">
            <mxPoint x="150" y="260" as="targetPoint" />
          </mxGeometry>
        </mxCell>
        <mxCell id="MRpiIrTG17fd3Gt3XZd6-133" value="IO data process()" style="rounded=0;whiteSpace=wrap;html=1;" vertex="1" parent="DXyc5GQimhF7zWb7F7Sv-38">
          <mxGeometry x="97.5" y="210" width="105" height="30" as="geometry" />
        </mxCell>
        <mxCell id="MRpiIrTG17fd3Gt3XZd6-222" value="Receive Buff" style="shape=parallelogram;perimeter=parallelogramPerimeter;whiteSpace=wrap;html=1;fixedSize=1;" vertex="1" parent="DXyc5GQimhF7zWb7F7Sv-38">
          <mxGeometry x="90" y="15" width="120" height="35" as="geometry" />
        </mxCell>
        <mxCell id="MRpiIrTG17fd3Gt3XZd6-230" style="edgeStyle=orthogonalEdgeStyle;rounded=0;orthogonalLoop=1;jettySize=auto;html=1;entryX=0.5;entryY=0;entryDx=0;entryDy=0;" edge="1" parent="DXyc5GQimhF7zWb7F7Sv-38" source="MRpiIrTG17fd3Gt3XZd6-223" target="MRpiIrTG17fd3Gt3XZd6-228">
          <mxGeometry relative="1" as="geometry" />
        </mxCell>
        <mxCell id="MRpiIrTG17fd3Gt3XZd6-223" value="Send&lt;br style=&quot;border-color: var(--border-color);&quot;&gt;I2C Buff" style="shape=parallelogram;perimeter=parallelogramPerimeter;whiteSpace=wrap;html=1;fixedSize=1;" vertex="1" parent="DXyc5GQimhF7zWb7F7Sv-38">
          <mxGeometry x="90" y="260" width="120" height="30" as="geometry" />
        </mxCell>
        <mxCell id="MRpiIrTG17fd3Gt3XZd6-228" value="flag = 3" style="rounded=0;whiteSpace=wrap;html=1;" vertex="1" parent="DXyc5GQimhF7zWb7F7Sv-38">
          <mxGeometry x="115" y="310" width="70" height="30" as="geometry" />
        </mxCell>
        <mxCell id="MRpiIrTG17fd3Gt3XZd6-30" style="edgeStyle=orthogonalEdgeStyle;rounded=0;orthogonalLoop=1;jettySize=auto;html=1;exitX=0.5;exitY=1;exitDx=0;exitDy=0;entryX=0.5;entryY=0;entryDx=0;entryDy=0;" edge="1" parent="wKFNCTLmc27lVLogcxWC-2" source="DXyc5GQimhF7zWb7F7Sv-233" target="DXyc5GQimhF7zWb7F7Sv-21">
          <mxGeometry relative="1" as="geometry" />
        </mxCell>
        <mxCell id="DXyc5GQimhF7zWb7F7Sv-233" value="&lt;span style=&quot;color: rgb(0, 0, 0); font-family: Helvetica; font-size: 12px; font-style: normal; font-variant-ligatures: normal; font-variant-caps: normal; font-weight: 400; letter-spacing: normal; orphans: 2; text-align: center; text-indent: 0px; text-transform: none; widows: 2; word-spacing: 0px; -webkit-text-stroke-width: 0px; background-color: rgb(251, 251, 251); text-decoration-thickness: initial; text-decoration-style: initial; text-decoration-color: initial; float: none; display: inline !important;&quot;&gt;Initiate MsTimer&lt;/span&gt;" style="rounded=0;whiteSpace=wrap;html=1;" parent="wKFNCTLmc27lVLogcxWC-2" vertex="1">
          <mxGeometry x="67.5" y="220" width="100" height="40" as="geometry" />
        </mxCell>
        <mxCell id="DXyc5GQimhF7zWb7F7Sv-21" value="" style="swimlane;startSize=0;" parent="wKFNCTLmc27lVLogcxWC-2" vertex="1">
          <mxGeometry x="20" y="290" width="195" height="530" as="geometry" />
        </mxCell>
        <mxCell id="DXyc5GQimhF7zWb7F7Sv-243" style="edgeStyle=orthogonalEdgeStyle;rounded=0;orthogonalLoop=1;jettySize=auto;html=1;entryX=0.5;entryY=0;entryDx=0;entryDy=0;" parent="DXyc5GQimhF7zWb7F7Sv-21" source="DXyc5GQimhF7zWb7F7Sv-22" target="DXyc5GQimhF7zWb7F7Sv-23" edge="1">
          <mxGeometry relative="1" as="geometry" />
        </mxCell>
        <mxCell id="DXyc5GQimhF7zWb7F7Sv-22" value="Timer increase" style="rounded=0;whiteSpace=wrap;html=1;" parent="DXyc5GQimhF7zWb7F7Sv-21" vertex="1">
          <mxGeometry x="55.64" y="90" width="88.75" height="30" as="geometry" />
        </mxCell>
        <mxCell id="DXyc5GQimhF7zWb7F7Sv-249" style="edgeStyle=orthogonalEdgeStyle;rounded=0;orthogonalLoop=1;jettySize=auto;html=1;entryX=0;entryY=0.5;entryDx=0;entryDy=0;" parent="DXyc5GQimhF7zWb7F7Sv-21" source="DXyc5GQimhF7zWb7F7Sv-23" target="DXyc5GQimhF7zWb7F7Sv-22" edge="1">
          <mxGeometry relative="1" as="geometry">
            <Array as="points">
              <mxPoint x="20" y="170" />
              <mxPoint x="20" y="105" />
            </Array>
          </mxGeometry>
        </mxCell>
        <mxCell id="MRpiIrTG17fd3Gt3XZd6-20" style="edgeStyle=orthogonalEdgeStyle;rounded=0;orthogonalLoop=1;jettySize=auto;html=1;entryX=0.5;entryY=0;entryDx=0;entryDy=0;" edge="1" parent="DXyc5GQimhF7zWb7F7Sv-21" source="DXyc5GQimhF7zWb7F7Sv-23" target="DXyc5GQimhF7zWb7F7Sv-24">
          <mxGeometry relative="1" as="geometry" />
        </mxCell>
        <mxCell id="DXyc5GQimhF7zWb7F7Sv-23" value="Timer overflow ?" style="rhombus;whiteSpace=wrap;html=1;" parent="DXyc5GQimhF7zWb7F7Sv-21" vertex="1">
          <mxGeometry x="40.01" y="150" width="120" height="40" as="geometry" />
        </mxCell>
        <mxCell id="MRpiIrTG17fd3Gt3XZd6-22" style="edgeStyle=orthogonalEdgeStyle;rounded=0;orthogonalLoop=1;jettySize=auto;html=1;exitX=0.5;exitY=1;exitDx=0;exitDy=0;entryX=0.5;entryY=0;entryDx=0;entryDy=0;" edge="1" parent="DXyc5GQimhF7zWb7F7Sv-21" source="DXyc5GQimhF7zWb7F7Sv-24" target="DXyc5GQimhF7zWb7F7Sv-70">
          <mxGeometry relative="1" as="geometry" />
        </mxCell>
        <mxCell id="DXyc5GQimhF7zWb7F7Sv-24" value="Read Pulse" style="rounded=0;whiteSpace=wrap;html=1;" parent="DXyc5GQimhF7zWb7F7Sv-21" vertex="1">
          <mxGeometry x="50" y="220" width="100" height="40" as="geometry" />
        </mxCell>
        <mxCell id="MRpiIrTG17fd3Gt3XZd6-33" style="edgeStyle=orthogonalEdgeStyle;rounded=0;orthogonalLoop=1;jettySize=auto;html=1;exitX=0.5;exitY=1;exitDx=0;exitDy=0;entryX=0.5;entryY=0;entryDx=0;entryDy=0;" edge="1" parent="DXyc5GQimhF7zWb7F7Sv-21" source="DXyc5GQimhF7zWb7F7Sv-70" target="MRpiIrTG17fd3Gt3XZd6-32">
          <mxGeometry relative="1" as="geometry" />
        </mxCell>
        <mxCell id="DXyc5GQimhF7zWb7F7Sv-70" value="&lt;span style=&quot;color: rgb(0, 0, 0); font-family: Helvetica; font-size: 12px; font-style: normal; font-variant-ligatures: normal; font-variant-caps: normal; font-weight: 400; letter-spacing: normal; orphans: 2; text-align: center; text-indent: 0px; text-transform: none; widows: 2; word-spacing: 0px; -webkit-text-stroke-width: 0px; background-color: rgb(251, 251, 251); text-decoration-thickness: initial; text-decoration-style: initial; text-decoration-color: initial; float: none; display: inline !important;&quot;&gt;IO data process()&lt;/span&gt;" style="rounded=0;whiteSpace=wrap;html=1;" parent="DXyc5GQimhF7zWb7F7Sv-21" vertex="1">
          <mxGeometry x="50" y="290" width="100" height="30" as="geometry" />
        </mxCell>
        <mxCell id="DXyc5GQimhF7zWb7F7Sv-242" style="edgeStyle=orthogonalEdgeStyle;rounded=0;orthogonalLoop=1;jettySize=auto;html=1;entryX=0.5;entryY=0;entryDx=0;entryDy=0;" parent="DXyc5GQimhF7zWb7F7Sv-21" source="DXyc5GQimhF7zWb7F7Sv-150" target="DXyc5GQimhF7zWb7F7Sv-22" edge="1">
          <mxGeometry relative="1" as="geometry" />
        </mxCell>
        <mxCell id="DXyc5GQimhF7zWb7F7Sv-150" value="MsTimer interrupt" style="rounded=0;whiteSpace=wrap;html=1;" parent="DXyc5GQimhF7zWb7F7Sv-21" vertex="1">
          <mxGeometry x="40" y="20" width="120" height="40" as="geometry" />
        </mxCell>
        <mxCell id="DXyc5GQimhF7zWb7F7Sv-254" value="Yes" style="text;strokeColor=none;fillColor=none;align=left;verticalAlign=middle;spacingLeft=4;spacingRight=4;overflow=hidden;points=[[0,0.5],[1,0.5]];portConstraint=eastwest;rotatable=0;whiteSpace=wrap;html=1;" parent="DXyc5GQimhF7zWb7F7Sv-21" vertex="1">
          <mxGeometry x="105" y="190" width="30" height="30" as="geometry" />
        </mxCell>
        <mxCell id="DXyc5GQimhF7zWb7F7Sv-255" value="No" style="text;strokeColor=none;fillColor=none;align=left;verticalAlign=middle;spacingLeft=4;spacingRight=4;overflow=hidden;points=[[0,0.5],[1,0.5]];portConstraint=eastwest;rotatable=0;whiteSpace=wrap;html=1;" parent="DXyc5GQimhF7zWb7F7Sv-21" vertex="1">
          <mxGeometry x="20" y="130" width="30" height="30" as="geometry" />
        </mxCell>
        <mxCell id="MRpiIrTG17fd3Gt3XZd6-35" value="" style="edgeStyle=orthogonalEdgeStyle;rounded=0;orthogonalLoop=1;jettySize=auto;html=1;" edge="1" parent="DXyc5GQimhF7zWb7F7Sv-21" source="MRpiIrTG17fd3Gt3XZd6-32" target="MRpiIrTG17fd3Gt3XZd6-34">
          <mxGeometry relative="1" as="geometry" />
        </mxCell>
        <mxCell id="MRpiIrTG17fd3Gt3XZd6-32" value="Send Pulse" style="rounded=0;whiteSpace=wrap;html=1;" vertex="1" parent="DXyc5GQimhF7zWb7F7Sv-21">
          <mxGeometry x="60.01" y="350" width="80" height="30" as="geometry" />
        </mxCell>
        <mxCell id="MRpiIrTG17fd3Gt3XZd6-101" style="edgeStyle=orthogonalEdgeStyle;rounded=0;orthogonalLoop=1;jettySize=auto;html=1;exitX=0.5;exitY=1;exitDx=0;exitDy=0;entryX=0.5;entryY=0;entryDx=0;entryDy=0;" edge="1" parent="DXyc5GQimhF7zWb7F7Sv-21" source="MRpiIrTG17fd3Gt3XZd6-34" target="MRpiIrTG17fd3Gt3XZd6-99">
          <mxGeometry relative="1" as="geometry" />
        </mxCell>
        <mxCell id="MRpiIrTG17fd3Gt3XZd6-34" value="flag = 1" style="rounded=0;whiteSpace=wrap;html=1;" vertex="1" parent="DXyc5GQimhF7zWb7F7Sv-21">
          <mxGeometry x="65" y="400" width="70" height="30" as="geometry" />
        </mxCell>
        <mxCell id="MRpiIrTG17fd3Gt3XZd6-100" style="edgeStyle=orthogonalEdgeStyle;rounded=0;orthogonalLoop=1;jettySize=auto;html=1;entryX=1;entryY=0.5;entryDx=0;entryDy=0;" edge="1" parent="DXyc5GQimhF7zWb7F7Sv-21" source="MRpiIrTG17fd3Gt3XZd6-99" target="DXyc5GQimhF7zWb7F7Sv-150">
          <mxGeometry relative="1" as="geometry">
            <Array as="points">
              <mxPoint x="180" y="470" />
              <mxPoint x="180" y="40" />
            </Array>
          </mxGeometry>
        </mxCell>
        <mxCell id="MRpiIrTG17fd3Gt3XZd6-99" value="Interrupt enable" style="rounded=0;whiteSpace=wrap;html=1;" vertex="1" parent="DXyc5GQimhF7zWb7F7Sv-21">
          <mxGeometry x="60.010000000000005" y="450" width="80" height="40" as="geometry" />
        </mxCell>
        <mxCell id="MRpiIrTG17fd3Gt3XZd6-233" style="edgeStyle=orthogonalEdgeStyle;rounded=0;orthogonalLoop=1;jettySize=auto;html=1;entryX=0;entryY=0.5;entryDx=0;entryDy=0;" edge="1" parent="wKFNCTLmc27lVLogcxWC-2" source="MRpiIrTG17fd3Gt3XZd6-38" target="MRpiIrTG17fd3Gt3XZd6-4">
          <mxGeometry relative="1" as="geometry" />
        </mxCell>
        <mxCell id="MRpiIrTG17fd3Gt3XZd6-318" value="" style="edgeStyle=orthogonalEdgeStyle;rounded=0;orthogonalLoop=1;jettySize=auto;html=1;" edge="1" parent="wKFNCTLmc27lVLogcxWC-2" source="MRpiIrTG17fd3Gt3XZd6-38" target="MRpiIrTG17fd3Gt3XZd6-313">
          <mxGeometry relative="1" as="geometry" />
        </mxCell>
        <mxCell id="MRpiIrTG17fd3Gt3XZd6-38" value="flag == 0?" style="rhombus;whiteSpace=wrap;html=1;" vertex="1" parent="wKFNCTLmc27lVLogcxWC-2">
          <mxGeometry x="270" y="920" width="115" height="40" as="geometry" />
        </mxCell>
        <mxCell id="MRpiIrTG17fd3Gt3XZd6-109" value="Yes" style="text;strokeColor=none;fillColor=none;align=left;verticalAlign=middle;spacingLeft=4;spacingRight=4;overflow=hidden;points=[[0,0.5],[1,0.5]];portConstraint=eastwest;rotatable=0;whiteSpace=wrap;html=1;" vertex="1" parent="wKFNCTLmc27lVLogcxWC-2">
          <mxGeometry x="365" y="435" width="30" height="30" as="geometry" />
        </mxCell>
        <mxCell id="MRpiIrTG17fd3Gt3XZd6-110" value="No" style="text;strokeColor=none;fillColor=none;align=left;verticalAlign=middle;spacingLeft=4;spacingRight=4;overflow=hidden;points=[[0,0.5],[1,0.5]];portConstraint=eastwest;rotatable=0;whiteSpace=wrap;html=1;" vertex="1" parent="wKFNCTLmc27lVLogcxWC-2">
          <mxGeometry x="240" y="435" width="30" height="30" as="geometry" />
        </mxCell>
        <mxCell id="MRpiIrTG17fd3Gt3XZd6-174" value="" style="swimlane;startSize=0;" vertex="1" parent="wKFNCTLmc27lVLogcxWC-2">
          <mxGeometry x="480" y="220" width="200" height="220" as="geometry" />
        </mxCell>
        <mxCell id="MRpiIrTG17fd3Gt3XZd6-185" value="&lt;span style=&quot;color: rgb(0, 0, 0); font-family: Helvetica; font-size: 12px; font-style: normal; font-variant-ligatures: normal; font-variant-caps: normal; font-weight: 400; letter-spacing: normal; orphans: 2; text-align: center; text-indent: 0px; text-transform: none; widows: 2; word-spacing: 0px; -webkit-text-stroke-width: 0px; background-color: rgb(251, 251, 251); text-decoration-thickness: initial; text-decoration-style: initial; text-decoration-color: initial; float: none; display: inline !important;&quot;&gt;WatchDog&lt;/span&gt;&lt;br style=&quot;border-color: var(--border-color); color: rgb(0, 0, 0); font-family: Helvetica; font-size: 12px; font-style: normal; font-variant-ligatures: normal; font-variant-caps: normal; font-weight: 400; letter-spacing: normal; orphans: 2; text-align: center; text-indent: 0px; text-transform: none; widows: 2; word-spacing: 0px; -webkit-text-stroke-width: 0px; background-color: rgb(251, 251, 251); text-decoration-thickness: initial; text-decoration-style: initial; text-decoration-color: initial;&quot;&gt;&lt;span style=&quot;color: rgb(0, 0, 0); font-family: Helvetica; font-size: 12px; font-style: normal; font-variant-ligatures: normal; font-variant-caps: normal; font-weight: 400; letter-spacing: normal; orphans: 2; text-align: center; text-indent: 0px; text-transform: none; widows: 2; word-spacing: 0px; -webkit-text-stroke-width: 0px; background-color: rgb(251, 251, 251); text-decoration-thickness: initial; text-decoration-style: initial; text-decoration-color: initial; float: none; display: inline !important;&quot;&gt;disable&lt;/span&gt;" style="rounded=0;whiteSpace=wrap;html=1;" vertex="1" parent="MRpiIrTG17fd3Gt3XZd6-174">
          <mxGeometry x="60" y="20" width="80" height="40" as="geometry" />
        </mxCell>
        <mxCell id="MRpiIrTG17fd3Gt3XZd6-187" value="Timer overflow ?" style="rhombus;whiteSpace=wrap;html=1;" vertex="1" parent="MRpiIrTG17fd3Gt3XZd6-174">
          <mxGeometry x="40" y="150" width="120" height="40" as="geometry" />
        </mxCell>
        <mxCell id="MRpiIrTG17fd3Gt3XZd6-188" value="" style="edgeStyle=orthogonalEdgeStyle;rounded=0;orthogonalLoop=1;jettySize=auto;html=1;" edge="1" parent="MRpiIrTG17fd3Gt3XZd6-174" source="MRpiIrTG17fd3Gt3XZd6-189" target="MRpiIrTG17fd3Gt3XZd6-187">
          <mxGeometry relative="1" as="geometry" />
        </mxCell>
        <mxCell id="MRpiIrTG17fd3Gt3XZd6-189" value="MsTimer&lt;br&gt;increments" style="rounded=0;whiteSpace=wrap;html=1;" vertex="1" parent="MRpiIrTG17fd3Gt3XZd6-174">
          <mxGeometry x="50" y="80" width="100" height="40" as="geometry" />
        </mxCell>
        <mxCell id="MRpiIrTG17fd3Gt3XZd6-184" value="" style="edgeStyle=orthogonalEdgeStyle;rounded=0;orthogonalLoop=1;jettySize=auto;html=1;" edge="1" parent="MRpiIrTG17fd3Gt3XZd6-174" source="MRpiIrTG17fd3Gt3XZd6-185" target="MRpiIrTG17fd3Gt3XZd6-189">
          <mxGeometry relative="1" as="geometry" />
        </mxCell>
        <mxCell id="MRpiIrTG17fd3Gt3XZd6-186" style="edgeStyle=orthogonalEdgeStyle;rounded=0;orthogonalLoop=1;jettySize=auto;html=1;entryX=0;entryY=0.5;entryDx=0;entryDy=0;" edge="1" parent="MRpiIrTG17fd3Gt3XZd6-174" source="MRpiIrTG17fd3Gt3XZd6-187" target="MRpiIrTG17fd3Gt3XZd6-189">
          <mxGeometry relative="1" as="geometry">
            <Array as="points">
              <mxPoint x="20" y="170" />
              <mxPoint x="20" y="100" />
            </Array>
          </mxGeometry>
        </mxCell>
        <mxCell id="MRpiIrTG17fd3Gt3XZd6-190" value="Yes" style="text;strokeColor=none;fillColor=none;align=left;verticalAlign=middle;spacingLeft=4;spacingRight=4;overflow=hidden;points=[[0,0.5],[1,0.5]];portConstraint=eastwest;rotatable=0;whiteSpace=wrap;html=1;" vertex="1" parent="MRpiIrTG17fd3Gt3XZd6-174">
          <mxGeometry x="130" y="180" width="30" height="30" as="geometry" />
        </mxCell>
        <mxCell id="MRpiIrTG17fd3Gt3XZd6-191" value="No" style="text;strokeColor=none;fillColor=none;align=left;verticalAlign=middle;spacingLeft=4;spacingRight=4;overflow=hidden;points=[[0,0.5],[1,0.5]];portConstraint=eastwest;rotatable=0;whiteSpace=wrap;html=1;" vertex="1" parent="MRpiIrTG17fd3Gt3XZd6-174">
          <mxGeometry x="20" y="120" width="30" height="30" as="geometry" />
        </mxCell>
        <mxCell id="MRpiIrTG17fd3Gt3XZd6-199" style="edgeStyle=orthogonalEdgeStyle;rounded=0;orthogonalLoop=1;jettySize=auto;html=1;entryX=1;entryY=0.5;entryDx=0;entryDy=0;exitX=0.5;exitY=1;exitDx=0;exitDy=0;" edge="1" parent="wKFNCTLmc27lVLogcxWC-2" source="MRpiIrTG17fd3Gt3XZd6-187" target="DXyc5GQimhF7zWb7F7Sv-15">
          <mxGeometry relative="1" as="geometry">
            <mxPoint x="260" y="165" as="targetPoint" />
            <Array as="points">
              <mxPoint x="580" y="430" />
              <mxPoint x="660" y="430" />
              <mxPoint x="660" y="165" />
            </Array>
          </mxGeometry>
        </mxCell>
        <mxCell id="MRpiIrTG17fd3Gt3XZd6-214" style="edgeStyle=orthogonalEdgeStyle;rounded=0;orthogonalLoop=1;jettySize=auto;html=1;entryX=0;entryY=0.5;entryDx=0;entryDy=0;" edge="1" parent="wKFNCTLmc27lVLogcxWC-2" source="DXyc5GQimhF7zWb7F7Sv-24" target="MRpiIrTG17fd3Gt3XZd6-222">
          <mxGeometry relative="1" as="geometry">
            <mxPoint x="490" y="535" as="targetPoint" />
            <Array as="points">
              <mxPoint x="330" y="530" />
              <mxPoint x="330" y="523" />
            </Array>
          </mxGeometry>
        </mxCell>
        <mxCell id="MRpiIrTG17fd3Gt3XZd6-317" style="edgeStyle=orthogonalEdgeStyle;rounded=0;orthogonalLoop=1;jettySize=auto;html=1;entryX=1;entryY=0.5;entryDx=0;entryDy=0;" edge="1" parent="wKFNCTLmc27lVLogcxWC-2" source="MRpiIrTG17fd3Gt3XZd6-224" target="MRpiIrTG17fd3Gt3XZd6-32">
          <mxGeometry relative="1" as="geometry" />
        </mxCell>
        <mxCell id="MRpiIrTG17fd3Gt3XZd6-224" value="Interrupt enable" style="shape=parallelogram;perimeter=parallelogramPerimeter;whiteSpace=wrap;html=1;fixedSize=1;" vertex="1" parent="wKFNCTLmc27lVLogcxWC-2">
          <mxGeometry x="480" y="860" width="120" height="35" as="geometry" />
        </mxCell>
        <mxCell id="MRpiIrTG17fd3Gt3XZd6-4" value="flag = 3" style="rounded=0;whiteSpace=wrap;html=1;" vertex="1" parent="wKFNCTLmc27lVLogcxWC-2">
          <mxGeometry x="420" y="920" width="90" height="40" as="geometry" />
        </mxCell>
        <mxCell id="MRpiIrTG17fd3Gt3XZd6-313" value="flag = 1" style="rounded=0;whiteSpace=wrap;html=1;" vertex="1" parent="wKFNCTLmc27lVLogcxWC-2">
          <mxGeometry x="282.5" y="990" width="90" height="40" as="geometry" />
        </mxCell>
        <mxCell id="MRpiIrTG17fd3Gt3XZd6-107" style="edgeStyle=orthogonalEdgeStyle;rounded=0;orthogonalLoop=1;jettySize=auto;html=1;entryX=0;entryY=0.5;entryDx=0;entryDy=0;" edge="1" parent="1" source="DXyc5GQimhF7zWb7F7Sv-87" target="DXyc5GQimhF7zWb7F7Sv-24">
          <mxGeometry relative="1" as="geometry">
            <Array as="points">
              <mxPoint x="455" y="580" />
            </Array>
          </mxGeometry>
        </mxCell>
        <mxCell id="MRpiIrTG17fd3Gt3XZd6-131" style="edgeStyle=orthogonalEdgeStyle;rounded=0;orthogonalLoop=1;jettySize=auto;html=1;entryX=0;entryY=0.5;entryDx=0;entryDy=0;" edge="1" parent="1" source="MRpiIrTG17fd3Gt3XZd6-32" target="DXyc5GQimhF7zWb7F7Sv-74">
          <mxGeometry relative="1" as="geometry" />
        </mxCell>
        <mxCell id="MRpiIrTG17fd3Gt3XZd6-132" style="edgeStyle=orthogonalEdgeStyle;rounded=0;orthogonalLoop=1;jettySize=auto;html=1;entryX=0;entryY=0.5;entryDx=0;entryDy=0;exitX=1;exitY=0.5;exitDx=0;exitDy=0;" edge="1" parent="1" source="MRpiIrTG17fd3Gt3XZd6-223" target="MRpiIrTG17fd3Gt3XZd6-225">
          <mxGeometry relative="1" as="geometry">
            <mxPoint x="1162.5" y="830" as="sourcePoint" />
            <mxPoint x="1784.38" y="280" as="targetPoint" />
            <Array as="points">
              <mxPoint x="1630" y="815" />
              <mxPoint x="1630" y="278" />
            </Array>
          </mxGeometry>
        </mxCell>
        <mxCell id="DXyc5GQimhF7zWb7F7Sv-181" style="edgeStyle=orthogonalEdgeStyle;rounded=0;orthogonalLoop=1;jettySize=auto;html=1;entryX=0;entryY=0.5;entryDx=0;entryDy=0;" parent="1" target="DXyc5GQimhF7zWb7F7Sv-177" edge="1">
          <mxGeometry relative="1" as="geometry">
            <Array as="points">
              <mxPoint x="2260" y="980" />
              <mxPoint x="2260" y="910" />
            </Array>
            <mxPoint x="2280" y="980" as="sourcePoint" />
          </mxGeometry>
        </mxCell>
        <mxCell id="MRpiIrTG17fd3Gt3XZd6-315" style="edgeStyle=orthogonalEdgeStyle;rounded=0;orthogonalLoop=1;jettySize=auto;html=1;exitX=0.5;exitY=1;exitDx=0;exitDy=0;" edge="1" parent="1" source="MRpiIrTG17fd3Gt3XZd6-311" target="MRpiIrTG17fd3Gt3XZd6-222">
          <mxGeometry relative="1" as="geometry">
            <Array as="points">
              <mxPoint x="1830" y="870" />
              <mxPoint x="1310" y="870" />
              <mxPoint x="1310" y="573" />
            </Array>
          </mxGeometry>
        </mxCell>
      </root>
    </mxGraphModel>
  </diagram>
</mxfile>
